# Blender 4.1.1
# www.blender.org
mtllib bomb.mtl
o bomb
v 0.000000 0.382683 -0.923880
v 0.000000 0.000000 -1.000000
v 0.000000 -0.382683 -0.923880
v 0.000000 -0.923880 -0.382683
v 0.146447 0.923880 -0.353553
v 0.270598 0.707107 -0.653281
v 0.353553 0.382683 -0.853553
v 0.382683 0.000000 -0.923880
v 0.353553 -0.382683 -0.853553
v 0.270598 -0.707107 -0.653281
v 0.146447 -0.923880 -0.353553
v 0.270598 0.923880 -0.270598
v 0.500000 0.707107 -0.500000
v 0.653282 0.382683 -0.653281
v 0.707107 0.000000 -0.707107
v 0.653282 -0.382683 -0.653281
v 0.500000 -0.707107 -0.500000
v 0.270598 -0.923880 -0.270598
v 0.353553 0.923880 -0.146447
v 0.653281 0.707107 -0.270598
v 0.853553 0.382683 -0.353553
v 0.923880 0.000000 -0.382683
v 0.853553 -0.382683 -0.353553
v 0.653281 -0.707107 -0.270598
v 0.353553 -0.923880 -0.146447
v 0.382683 0.923880 0.000000
v 0.707107 0.707107 0.000000
v 0.923880 0.382683 0.000000
v 1.000000 0.000000 0.000000
v 0.923880 -0.382683 0.000000
v 0.707107 -0.707107 0.000000
v 0.382683 -0.923880 0.000000
v 0.353553 0.923880 0.146447
v 0.653281 0.707107 0.270598
v 0.853553 0.382683 0.353554
v 0.923879 0.000000 0.382684
v 0.853553 -0.382683 0.353554
v 0.653281 -0.707107 0.270598
v 0.353553 -0.923880 0.146447
v 0.270598 0.923880 0.270598
v 0.500000 0.707107 0.500000
v 0.653281 0.382683 0.653282
v 0.707107 0.000000 0.707107
v 0.653281 -0.382683 0.653282
v 0.500000 -0.707107 0.500000
v 0.270598 -0.923880 0.270598
v 0.146447 0.923880 0.353553
v 0.270598 0.707107 0.653281
v 0.353553 0.382683 0.853553
v 0.382683 0.000000 0.923880
v 0.353553 -0.382683 0.853553
v 0.270598 -0.707107 0.653281
v 0.146447 -0.923880 0.353553
v -0.000000 0.923880 0.382683
v -0.000000 0.707107 0.707107
v -0.000000 0.382683 0.923879
v -0.000000 0.000000 1.000000
v -0.000000 -0.382683 0.923879
v -0.000000 -0.707107 0.707107
v -0.000000 -0.923880 0.382683
v 0.000000 -1.000000 0.000000
v 0.000000 1.000000 0.000000
v -0.146447 0.923880 0.353553
v -0.270598 0.707107 0.653281
v -0.353554 0.382683 0.853553
v -0.382684 0.000000 0.923879
v -0.353554 -0.382683 0.853553
v -0.270598 -0.707107 0.653281
v -0.146447 -0.923880 0.353553
v -0.270598 0.923880 0.270598
v -0.500000 0.707107 0.500000
v -0.653282 0.382683 0.653281
v -0.707107 0.000000 0.707106
v -0.653282 -0.382683 0.653281
v -0.500000 -0.707107 0.500000
v -0.270598 -0.923880 0.270598
v -0.353553 0.923880 0.146446
v -0.653281 0.707107 0.270598
v -0.853553 0.382683 0.353553
v -0.923880 0.000000 0.382683
v -0.853553 -0.382683 0.353553
v -0.653281 -0.707107 0.270598
v -0.353553 -0.923880 0.146446
v -0.382683 0.923880 -0.000000
v -0.707107 0.707107 -0.000000
v -0.923879 0.382683 -0.000000
v -1.000000 0.000000 -0.000001
v -0.923879 -0.382683 -0.000000
v -0.707107 -0.707107 -0.000000
v -0.382683 -0.923880 -0.000000
v -0.353553 0.923880 -0.146447
v -0.653281 0.707107 -0.270598
v -0.853553 0.382683 -0.353554
v -0.923879 0.000000 -0.382684
v -0.853553 -0.382683 -0.353554
v -0.653281 -0.707107 -0.270598
v -0.353553 -0.923880 -0.146447
v -0.270598 0.923880 -0.270598
v -0.500000 0.707107 -0.500000
v -0.653281 0.382683 -0.653282
v -0.707106 0.000000 -0.707107
v -0.653281 -0.382683 -0.653282
v -0.500000 -0.707107 -0.500000
v -0.270598 -0.923880 -0.270598
v -0.146446 0.923880 -0.353554
v -0.270598 0.707107 -0.653281
v -0.353553 0.382683 -0.853553
v -0.382683 0.000000 -0.923880
v -0.353553 -0.382683 -0.853553
v -0.270598 -0.707107 -0.653281
v -0.146446 -0.923880 -0.353554
v 0.000000 0.923880 -0.382683
v 0.000000 0.707107 -0.707107
v 0.000000 -0.707107 -0.707107
v 0.000000 0.669044 -0.400000
v 0.000000 1.069044 -0.400000
v 0.153073 0.669044 -0.369552
v 0.153073 1.069044 -0.369552
v 0.282843 0.669044 -0.282843
v 0.282843 1.069044 -0.282843
v 0.369552 0.669044 -0.153073
v 0.369552 1.069044 -0.153073
v 0.400000 0.669044 0.000000
v 0.400000 1.069044 0.000000
v 0.369552 0.669044 0.153073
v 0.369552 1.069044 0.153073
v 0.282843 0.669044 0.282843
v 0.282843 1.069044 0.282843
v 0.153073 0.669044 0.369552
v 0.153073 1.069044 0.369552
v 0.000000 0.669044 0.400000
v 0.000000 1.069044 0.400000
v -0.153073 0.669044 0.369552
v -0.153073 1.069044 0.369552
v -0.282843 0.669044 0.282843
v -0.282843 1.069044 0.282843
v -0.369552 0.669044 0.153073
v -0.369552 1.069044 0.153073
v -0.400000 0.669044 0.000000
v -0.400000 1.069044 0.000000
v -0.369552 0.669044 -0.153073
v -0.369552 1.069044 -0.153073
v -0.282843 0.669044 -0.282843
v -0.282843 1.069044 -0.282843
v -0.153073 0.669044 -0.369552
v -0.153073 1.069044 -0.369552
v -0.607463 2.279297 0.635854
v -0.602792 2.272402 0.642005
v -0.601958 2.262743 0.645636
v -0.605185 2.252907 0.645774
v -0.611608 2.245530 0.642382
v -0.619505 2.242588 0.636369
v -0.626761 2.244870 0.629346
v -0.631432 2.251764 0.623195
v -0.632266 2.261423 0.619565
v -0.629039 2.271259 0.619426
v -0.622617 2.278636 0.622818
v -0.614719 2.281579 0.628831
v -0.482085 2.218379 0.493187
v -0.478281 2.211916 0.500324
v -0.478632 2.202845 0.505302
v -0.483043 2.193598 0.506787
v -0.490332 2.186651 0.504381
v -0.498547 2.183867 0.498729
v -0.505486 2.185991 0.491345
v -0.509290 2.192454 0.484209
v -0.508940 2.201525 0.479231
v -0.504529 2.210773 0.477746
v -0.497239 2.217719 0.480152
v -0.489024 2.220503 0.485804
v -0.379439 2.131606 0.378255
v -0.376522 2.125898 0.386385
v -0.378085 2.117860 0.392719
v -0.383708 2.109645 0.395561
v -0.391884 2.103454 0.394148
v -0.400424 2.100946 0.388860
v -0.407038 2.102794 0.381113
v -0.409955 2.108501 0.372983
v -0.408392 2.116540 0.366648
v -0.402770 2.124755 0.363807
v -0.394593 2.130946 0.365220
v -0.386053 2.133453 0.370508
v -0.295740 2.020746 0.286568
v -0.293583 2.016035 0.295532
v -0.296184 2.009359 0.303004
v -0.302846 2.002506 0.306984
v -0.311783 1.997312 0.306405
v -0.320600 1.995170 0.301421
v -0.326936 1.996652 0.293369
v -0.329093 2.001362 0.284406
v -0.326492 2.008039 0.276933
v -0.319830 2.014892 0.272953
v -0.310893 2.020086 0.273533
v -0.302076 2.022228 0.278516
v -0.227103 1.887935 0.213504
v -0.225475 1.884224 0.223030
v -0.228797 1.878913 0.231273
v -0.236180 1.873425 0.236022
v -0.245645 1.869231 0.236006
v -0.254656 1.867454 0.231229
v -0.260799 1.868570 0.222970
v -0.262427 1.872282 0.213444
v -0.259105 1.877593 0.205201
v -0.251722 1.883081 0.200452
v -0.242257 1.887275 0.200468
v -0.233246 1.889052 0.205246
v -0.169369 1.735244 0.154120
v -0.168048 1.732324 0.163964
v -0.171791 1.728093 0.172640
v -0.179594 1.723686 0.177823
v -0.189367 1.720283 0.178125
v -0.198491 1.718795 0.173464
v -0.204521 1.719623 0.165089
v -0.205842 1.722543 0.155245
v -0.202099 1.726773 0.146569
v -0.194296 1.731180 0.141386
v -0.184523 1.734583 0.141084
v -0.175399 1.736071 0.145745
v -0.118244 1.564432 0.103337
v -0.117079 1.562015 0.113336
v -0.121033 1.558471 0.122223
v -0.129048 1.554750 0.127617
v -0.138975 1.551849 0.128073
v -0.148156 1.550545 0.123469
v -0.154129 1.551189 0.115038
v -0.155295 1.553606 0.105039
v -0.151341 1.557150 0.096152
v -0.143326 1.560871 0.090757
v -0.133398 1.563772 0.090301
v -0.124218 1.565076 0.094906
v -0.069459 1.377046 0.056113
v -0.068353 1.374853 0.066170
v -0.072390 1.371616 0.075137
v -0.080486 1.368203 0.080611
v -0.090474 1.365527 0.081126
v -0.099677 1.364306 0.076543
v -0.105628 1.364867 0.068090
v -0.106734 1.367059 0.058033
v -0.102697 1.370296 0.049066
v -0.094601 1.373710 0.043592
v -0.084613 1.376386 0.043077
v -0.075410 1.377607 0.047660
v -0.018803 1.174553 0.007479
v -0.017695 1.172351 0.017534
v -0.021729 1.169102 0.026498
v -0.029822 1.165676 0.031970
v -0.039808 1.162991 0.032482
v -0.049009 1.161766 0.027898
v -0.054961 1.162331 0.019446
v -0.056069 1.164532 0.009391
v -0.052036 1.167781 0.000427
v -0.043943 1.171208 -0.005044
v -0.033957 1.173892 -0.005556
v -0.024756 1.175117 -0.000973
v 0.037885 0.958413 -0.047476
v 0.039045 0.956015 -0.037472
v 0.035083 0.952497 -0.028577
v 0.027061 0.948803 -0.023176
v 0.017128 0.945922 -0.022714
v 0.007946 0.944626 -0.027317
v 0.001974 0.945262 -0.035750
v 0.000814 0.947660 -0.045754
v 0.004776 0.951177 -0.054648
v 0.012798 0.954872 -0.060050
v 0.022731 0.957753 -0.060511
v 0.031913 0.959049 -0.055909
v 0.104742 0.730093 -0.113636
v 0.106003 0.727355 -0.103732
v 0.102179 0.723375 -0.094974
v 0.094294 0.719217 -0.089708
v 0.084462 0.715997 -0.089346
v 0.075316 0.714577 -0.093985
v 0.069308 0.715337 -0.102382
v 0.068047 0.718074 -0.112286
v 0.071871 0.722055 -0.121045
v 0.079756 0.726212 -0.126310
v 0.089589 0.729432 -0.126672
v 0.098734 0.730853 -0.122033
v 0.185899 0.491061 -0.195877
v 0.187310 0.487885 -0.186125
v 0.183691 0.483305 -0.177575
v 0.176012 0.478548 -0.172518
v 0.166329 0.474889 -0.172308
v 0.157239 0.473308 -0.177003
v 0.151175 0.474229 -0.185344
v 0.149764 0.477405 -0.195096
v 0.153383 0.481985 -0.203646
v 0.161063 0.486742 -0.208703
v 0.170745 0.490401 -0.208913
v 0.179836 0.491982 -0.204218
v 0.285498 0.242763 -0.299088
v 0.287105 0.239102 -0.289538
v 0.283753 0.233859 -0.281265
v 0.276340 0.228439 -0.276484
v 0.266853 0.224294 -0.276477
v 0.257834 0.222535 -0.281246
v 0.251699 0.223634 -0.289513
v 0.250093 0.227295 -0.299062
v 0.253445 0.232539 -0.307336
v 0.260858 0.237959 -0.312117
v 0.270344 0.242103 -0.312123
v 0.279364 0.243862 -0.307355
vn 0.1098 -0.8264 -0.5522
vn 0.1915 -0.1915 -0.9626
vn 0.1632 0.5481 -0.8203
vn 0.0388 0.9800 -0.1949
vn 0.0388 -0.9800 -0.1949
vn 0.1632 -0.5481 -0.8203
vn 0.1915 0.1915 -0.9626
vn 0.1098 0.8264 -0.5522
vn 0.1104 0.9800 -0.1653
vn 0.1104 -0.9800 -0.1653
vn 0.4647 -0.5481 -0.6954
vn 0.5453 0.1915 -0.8161
vn 0.3128 0.8264 -0.4681
vn 0.3128 -0.8264 -0.4681
vn 0.5453 -0.1915 -0.8161
vn 0.4647 0.5481 -0.6954
vn 0.6954 -0.5481 -0.4647
vn 0.8161 0.1915 -0.5453
vn 0.4681 0.8264 -0.3128
vn 0.4681 -0.8264 -0.3128
vn 0.8161 -0.1915 -0.5453
vn 0.6954 0.5481 -0.4647
vn 0.1653 0.9800 -0.1104
vn 0.1653 -0.9800 -0.1104
vn 0.5522 -0.8264 -0.1098
vn 0.9626 -0.1915 -0.1915
vn 0.8203 0.5481 -0.1632
vn 0.1949 0.9800 -0.0388
vn 0.1949 -0.9800 -0.0388
vn 0.8203 -0.5481 -0.1632
vn 0.9626 0.1915 -0.1915
vn 0.5522 0.8264 -0.1098
vn 0.9626 -0.1915 0.1915
vn 0.8203 0.5481 0.1632
vn 0.1949 0.9800 0.0388
vn 0.1949 -0.9800 0.0388
vn 0.8203 -0.5481 0.1632
vn 0.9626 0.1915 0.1915
vn 0.5522 0.8264 0.1098
vn 0.5522 -0.8264 0.1098
vn 0.1653 -0.9800 0.1104
vn 0.6954 -0.5481 0.4647
vn 0.8161 0.1915 0.5453
vn 0.4681 0.8264 0.3128
vn 0.4681 -0.8264 0.3128
vn 0.8161 -0.1915 0.5453
vn 0.6954 0.5481 0.4647
vn 0.1653 0.9800 0.1104
vn 0.5453 0.1915 0.8161
vn 0.3128 0.8264 0.4681
vn 0.3128 -0.8264 0.4681
vn 0.5453 -0.1915 0.8161
vn 0.4647 0.5481 0.6954
vn 0.1104 0.9800 0.1653
vn 0.1104 -0.9800 0.1653
vn 0.4647 -0.5481 0.6954
vn 0.1098 -0.8264 0.5522
vn 0.1915 -0.1915 0.9626
vn 0.1632 0.5481 0.8203
vn 0.0388 0.9800 0.1949
vn 0.0388 -0.9800 0.1949
vn 0.1632 -0.5481 0.8203
vn 0.1915 0.1915 0.9626
vn 0.1098 0.8264 0.5522
vn -0.1632 0.5481 0.8203
vn -0.0388 0.9800 0.1949
vn -0.0388 -0.9800 0.1949
vn -0.1632 -0.5481 0.8203
vn -0.1915 0.1915 0.9626
vn -0.1098 0.8264 0.5522
vn -0.1098 -0.8264 0.5522
vn -0.1915 -0.1915 0.9626
vn -0.1104 -0.9800 0.1653
vn -0.4647 -0.5481 0.6954
vn -0.5453 0.1915 0.8161
vn -0.3128 0.8264 0.4681
vn -0.3128 -0.8264 0.4681
vn -0.5453 -0.1915 0.8161
vn -0.4647 0.5481 0.6954
vn -0.1104 0.9800 0.1653
vn -0.4681 0.8264 0.3128
vn -0.4681 -0.8264 0.3128
vn -0.8161 -0.1915 0.5453
vn -0.6954 0.5481 0.4647
vn -0.1653 0.9800 0.1104
vn -0.1653 -0.9800 0.1104
vn -0.6954 -0.5481 0.4647
vn -0.8161 0.1915 0.5453
vn -0.5522 -0.8264 0.1098
vn -0.9626 -0.1915 0.1915
vn -0.8203 0.5481 0.1632
vn -0.1949 0.9800 0.0388
vn -0.1949 -0.9800 0.0388
vn -0.8203 -0.5481 0.1632
vn -0.9626 0.1915 0.1915
vn -0.5522 0.8264 0.1098
vn -0.1949 0.9800 -0.0388
vn -0.1949 -0.9800 -0.0388
vn -0.8203 -0.5481 -0.1632
vn -0.9626 0.1915 -0.1915
vn -0.5522 0.8264 -0.1098
vn -0.5522 -0.8264 -0.1098
vn -0.9626 -0.1915 -0.1915
vn -0.8203 0.5481 -0.1632
vn -0.6954 -0.5481 -0.4647
vn -0.8161 0.1915 -0.5453
vn -0.4681 0.8264 -0.3128
vn -0.4681 -0.8264 -0.3128
vn -0.8161 -0.1915 -0.5453
vn -0.6954 0.5481 -0.4647
vn -0.1653 0.9800 -0.1104
vn -0.1653 -0.9800 -0.1104
vn -0.3128 -0.8264 -0.4681
vn -0.5453 -0.1915 -0.8161
vn -0.4647 0.5481 -0.6954
vn -0.1104 0.9800 -0.1653
vn -0.1104 -0.9800 -0.1653
vn -0.4647 -0.5481 -0.6954
vn -0.5453 0.1915 -0.8161
vn -0.3128 0.8264 -0.4681
vn -0.1915 -0.1915 -0.9626
vn -0.1632 0.5481 -0.8203
vn -0.0388 0.9800 -0.1949
vn -0.0388 -0.9800 -0.1949
vn -0.1632 -0.5481 -0.8203
vn -0.1915 0.1915 -0.9626
vn -0.1098 0.8264 -0.5522
vn -0.1098 -0.8264 -0.5522
vn 0.1951 -0.0000 -0.9808
vn 0.5556 -0.0000 -0.8315
vn 0.8315 -0.0000 -0.5556
vn 0.9808 -0.0000 -0.1951
vn 0.9808 -0.0000 0.1951
vn 0.8315 -0.0000 0.5556
vn 0.5556 -0.0000 0.8315
vn 0.1951 -0.0000 0.9808
vn -0.1951 -0.0000 0.9808
vn -0.5556 -0.0000 0.8315
vn -0.8315 -0.0000 0.5556
vn -0.9808 -0.0000 0.1951
vn -0.9808 -0.0000 -0.1951
vn -0.8315 -0.0000 -0.5556
vn -0.0000 1.0000 -0.0000
vn -0.5556 -0.0000 -0.8315
vn -0.1951 -0.0000 -0.9808
vn -0.0000 -1.0000 -0.0000
vn 0.5807 0.8132 0.0401
vn 0.1755 0.9516 -0.2522
vn 0.5258 0.8445 0.1015
vn 0.7727 0.4976 0.3942
vn 0.7406 0.5157 0.4307
vn 0.7616 0.0483 0.6463
vn 0.7602 0.0468 0.6481
vn 0.5457 -0.4175 0.7266
vn 0.5743 -0.4380 0.6916
vn 0.1793 -0.7726 0.6091
vn 0.2312 -0.8048 0.5466
vn -0.2380 -0.9160 0.3231
vn -0.1753 -0.9517 0.2520
vn -0.5339 -0.8382 -0.1116
vn -0.7463 -0.4956 -0.4444
vn -0.5895 -0.8061 -0.0523
vn -0.7551 -0.0192 -0.6554
vn -0.7776 -0.4751 -0.4117
vn -0.5610 0.4590 -0.6889
vn -0.7536 -0.0177 -0.6571
vn -0.2204 0.8120 -0.5404
vn -0.5287 0.4409 -0.7253
vn -0.1663 0.7806 -0.6025
vn 0.6858 0.7236 -0.0783
vn 0.2381 0.9159 -0.3232
vn 0.8347 0.4453 0.3240
vn 0.7640 0.0475 0.6435
vn 0.4873 -0.3664 0.7926
vn 0.0753 -0.6833 0.7263
vn -0.3593 -0.8127 0.4588
vn -0.6943 -0.7168 0.0642
vn -0.8368 -0.4241 -0.3463
vn -0.7512 -0.0185 -0.6598
vn -0.4660 0.3887 -0.7948
vn -0.0605 0.6911 -0.7203
vn 0.4630 0.6766 -0.5725
vn 0.3593 0.8127 -0.4588
vn 0.7765 0.6049 -0.1767
vn 0.8879 0.3747 0.2668
vn 0.7650 0.0439 0.6425
vn 0.4356 -0.3011 0.8483
vn -0.0150 -0.5662 0.8241
vn -0.7834 -0.5997 0.1631
vn -0.8874 -0.3587 -0.2897
vn -0.7501 -0.0221 -0.6609
vn -0.4139 0.3180 -0.8530
vn 0.0292 0.5723 -0.8195
vn 0.5352 0.5401 -0.6495
vn 0.8400 0.4857 -0.2420
vn 0.9246 0.3034 0.2303
vn 0.7642 0.0397 0.6437
vn 0.3976 -0.2361 0.8867
vn -0.4632 -0.6763 0.5727
vn -0.0790 -0.4491 0.8900
vn -0.8449 -0.4825 0.2311
vn -0.9229 -0.2936 -0.2492
vn -0.7510 -0.0263 -0.6597
vn -0.3796 0.2466 -0.8917
vn 0.0902 0.4530 -0.8869
vn 0.5773 0.4320 -0.6929
vn 0.8773 0.3914 -0.2779
vn 0.9456 0.2470 0.2115
vn 0.7623 0.0365 0.6462
vn 0.3737 -0.1846 0.9090
vn -0.5353 -0.5398 0.6497
vn -0.1173 -0.3564 0.9269
vn -0.8803 -0.3897 0.2706
vn -0.9440 -0.2420 -0.2244
vn -0.7530 -0.0295 -0.6573
vn -0.3614 0.1901 -0.9128
vn 0.1249 0.3586 -0.9251
vn 0.5984 0.3633 -0.7141
vn 0.8963 0.3314 -0.2945
vn 0.9559 0.2113 0.2039
vn 0.7602 0.0346 0.6487
vn 0.3603 -0.1518 0.9204
vn -0.5773 -0.4318 0.6930
vn -0.1374 -0.2976 0.9448
vn -0.8979 -0.3307 0.2906
vn -0.9549 -0.2091 -0.2109
vn -0.7551 -0.0315 -0.6548
vn -0.3537 0.1543 -0.9226
vn 0.1414 0.2986 -0.9438
vn 0.6067 0.3325 -0.7221
vn 0.9040 0.3046 -0.3000
vn 0.9597 0.1951 0.2025
vn 0.7584 0.0334 0.6510
vn 0.3537 -0.1374 0.9252
vn -0.5985 -0.3632 0.7141
vn -0.1460 -0.2713 0.9513
vn -0.9044 -0.3044 0.2989
vn -0.9594 -0.1946 -0.2044
vn -0.7570 -0.0326 -0.6526
vn -0.3520 0.1380 -0.9258
vn 0.1471 0.2716 -0.9511
vn 0.6063 0.3338 -0.7218
vn 0.9042 0.3055 -0.2986
vn 0.9592 0.1951 0.2047
vn 0.7569 0.0326 0.6528
vn 0.3519 -0.1387 0.9257
vn -0.6067 -0.3325 0.7221
vn -0.1469 -0.2727 0.9508
vn -0.9037 -0.3057 0.2998
vn -0.9595 -0.1958 -0.2025
vn -0.7585 -0.0335 -0.6508
vn -0.3541 0.1379 -0.9250
vn 0.1456 0.2724 -0.9511
vn 0.5992 0.3606 -0.7148
vn 0.8984 0.3285 -0.2916
vn 0.9554 0.2080 0.2098
vn 0.7557 0.0318 0.6542
vn 0.3540 -0.1527 0.9227
vn -0.6063 -0.3338 0.7218
vn -0.1417 -0.2961 0.9446
vn -0.8972 -0.3290 0.2947
vn -0.9562 -0.2097 -0.2043
vn -0.7597 -0.0342 -0.6494
vn -0.3592 0.1507 -0.9210
vn 0.1385 0.2954 -0.9453
vn 0.5855 0.4069 -0.7012
vn 0.8868 0.3684 -0.2791
vn 0.9484 0.2306 0.2178
vn 0.7548 0.0310 0.6552
vn 0.3597 -0.1764 0.9162
vn -0.5992 -0.3606 0.7148
vn -0.1305 -0.3365 0.9326
vn -0.8850 -0.3693 0.2836
vn -0.9494 -0.2335 -0.2099
vn -0.7606 -0.0350 -0.6483
vn -0.3672 0.1733 -0.9138
vn 0.1258 0.3353 -0.9337
vn 0.5649 0.4668 -0.6804
vn 0.8692 0.4202 -0.2606
vn 0.9380 0.2600 0.2291
vn 0.7542 0.0302 0.6559
vn 0.3692 -0.2070 0.9060
vn -0.5854 -0.4069 0.7012
vn -0.1132 -0.3886 0.9144
vn -0.8670 -0.4214 0.2660
vn -0.9392 -0.2640 -0.2195
vn -0.7611 -0.0358 -0.6476
vn -0.3783 0.2026 -0.9032
vn 0.1075 0.3870 -0.9158
vn 0.5525 0.4991 -0.6676
vn 0.8584 0.4481 -0.2496
vn 0.9319 0.2759 0.2355
vn 0.7541 0.0297 0.6561
vn 0.3748 -0.2237 0.8997
vn -0.5649 -0.4669 0.6804
vn -0.1030 -0.4167 0.9032
vn -0.8560 -0.4495 0.2554
vn -0.9330 -0.2806 -0.2253
vn -0.7613 -0.0363 -0.6474
vn -0.3845 0.2186 -0.8969
vn 0.0969 0.4149 -0.9047
vn -0.5525 -0.4991 0.6676
vt 0.871145 0.263858
vt 0.875294 0.234725
vt 0.886117 0.242211
vt 0.841202 0.307151
vt 0.845350 0.278019
vt 0.856174 0.285504
vt 0.811258 0.350445
vt 0.815407 0.321312
vt 0.826230 0.328798
vt 0.796286 0.372091
vt 0.775903 0.389995
vt 0.785463 0.364605
vt 0.895677 0.216821
vt 0.860322 0.256372
vt 0.830378 0.299665
vt 0.800435 0.342959
vt 0.765079 0.382509
vt 0.774640 0.357120
vt 0.884854 0.209335
vt 0.864470 0.227239
vt 0.849499 0.248886
vt 0.819555 0.292179
vt 0.789611 0.335473
vt 0.834527 0.270533
vt 0.804583 0.313826
vt 0.823703 0.263047
vt 0.838675 0.241400
vt 0.793760 0.306340
vt 0.808732 0.284694
vt 0.778788 0.327987
vt 0.853647 0.219753
vt 0.754256 0.375023
vt 0.763816 0.349634
vt 0.874031 0.201850
vt 0.842824 0.212267
vt 0.797908 0.277208
vt 0.812880 0.255561
vt 0.767965 0.320501
vt 0.782936 0.298854
vt 0.743433 0.367537
vt 0.752993 0.342148
vt 0.863207 0.194364
vt 0.827852 0.233914
vt 0.802057 0.248075
vt 0.772113 0.291368
vt 0.732609 0.360052
vt 0.742169 0.334662
vt 0.852384 0.186878
vt 0.832000 0.204781
vt 0.817029 0.226428
vt 0.787085 0.269722
vt 0.757141 0.313015
vt 0.841560 0.179392
vt 0.821177 0.197296
vt 0.806205 0.218942
vt 0.761290 0.283882
vt 0.776262 0.262236
vt 0.731346 0.327176
vt 0.746318 0.305529
vt 0.791233 0.240589
vt 0.721786 0.352566
vt 0.765438 0.254750
vt 0.735495 0.298043
vt 0.810354 0.189810
vt 0.780410 0.233103
vt 0.750466 0.276397
vt 0.710963 0.345080
vt 0.720523 0.319690
vt 0.830737 0.171906
vt 0.795382 0.211456
vt 0.784558 0.203970
vt 0.799530 0.182324
vt 0.769587 0.225617
vt 0.739643 0.268911
vt 0.700139 0.337594
vt 0.709699 0.312204
vt 0.819914 0.164420
vt 0.754615 0.247264
vt 0.724671 0.290557
vt 0.728820 0.261425
vt 0.689316 0.330108
vt 0.698876 0.304718
vt 0.809090 0.156934
vt 0.788707 0.174838
vt 0.758763 0.218131
vt 0.773735 0.196485
vt 0.743791 0.239778
vt 0.713848 0.283072
vt 0.798267 0.149448
vt 0.777884 0.167352
vt 0.747940 0.210645
vt 0.762912 0.188999
vt 0.717996 0.253939
vt 0.732968 0.232292
vt 0.703024 0.275586
vt 0.678492 0.322622
vt 0.688053 0.297232
vt 0.692201 0.268100
vt 0.767060 0.159866
vt 0.737117 0.203159
vt 0.707173 0.246453
vt 0.667669 0.315136
vt 0.677229 0.289746
vt 0.787444 0.141962
vt 0.752088 0.181513
vt 0.722145 0.224806
vt 0.756237 0.152380
vt 0.726293 0.195674
vt 0.696350 0.238967
vt 0.656846 0.307650
vt 0.666406 0.282261
vt 0.776620 0.134476
vt 0.741265 0.174027
vt 0.711321 0.217320
vt 0.681378 0.260614
vt 0.839580 0.402035
vt 0.819196 0.419939
vt 0.828756 0.394549
vt 0.938971 0.246765
vt 0.929411 0.272155
vt 0.918587 0.264669
vt 0.899467 0.315448
vt 0.903615 0.286315
vt 0.914439 0.293801
vt 0.884495 0.337095
vt 0.858700 0.351256
vt 0.873672 0.329609
vt 0.843728 0.372902
vt 0.854552 0.380388
vt 0.888644 0.307962
vt 0.869523 0.358742
vt 0.877820 0.300476
vt 0.892792 0.278830
vt 0.847877 0.343770
vt 0.862848 0.322123
vt 0.832905 0.365416
vt 0.907764 0.257183
vt 0.808373 0.412453
vt 0.817933 0.387063
vt 0.928147 0.239279
vt 0.896941 0.249697
vt 0.866997 0.292990
vt 0.837053 0.336284
vt 0.797549 0.404967
vt 0.807110 0.379577
vt 0.917324 0.231793
vt 0.881969 0.271344
vt 0.852025 0.314637
vt 0.822081 0.357931
vt 0.786726 0.397481
vt 0.906501 0.224307
vt 0.061305 0.272592
vt 0.166584 0.259432
vt 0.166584 0.272592
vt 0.061305 0.259432
vt 0.166584 0.246272
vt 0.061305 0.246272
vt 0.166584 0.233112
vt 0.061305 0.233112
vt 0.166584 0.219952
vt 0.061305 0.219952
vt 0.166584 0.206793
vt 0.061305 0.206793
vt 0.166584 0.193633
vt 0.061305 0.193633
vt 0.166584 0.180473
vt 0.061305 0.180473
vt 0.166584 0.167313
vt 0.061305 0.167313
vt 0.166584 0.154153
vt 0.061305 0.154153
vt 0.166584 0.140993
vt 0.061305 0.140993
vt 0.166584 0.127833
vt 0.061305 0.127833
vt 0.166584 0.114673
vt 0.061305 0.114673
vt 0.166584 0.101513
vt 0.061305 0.101513
vt 0.166584 0.088353
vt 0.121832 0.494704
vt 0.062410 0.455000
vt 0.102114 0.395578
vt 0.061305 0.088353
vt 0.166584 0.075193
vt 0.061305 0.075193
vt 0.166584 0.062033
vt 0.368891 0.069955
vt 0.298798 0.083898
vt 0.312741 0.153991
vt 0.106639 0.873306
vt 0.061024 0.938976
vt 0.062368 0.937900
vt 0.106683 0.873346
vt 0.063369 0.936989
vt 0.106707 0.873375
vt 0.064062 0.936116
vt 0.106697 0.873381
vt 0.064444 0.935299
vt 0.106647 0.873354
vt 0.064531 0.934616
vt 0.106567 0.873302
vt 0.064332 0.934206
vt 0.063878 0.934165
vt 0.063280 0.934470
vt 0.106490 0.873245
vt 0.062640 0.935120
vt 0.106447 0.873208
vt 0.062054 0.936089
vt 0.106449 0.873196
vt 0.061534 0.937374
vt 0.106485 0.873209
vt 0.106538 0.873235
vt 0.140283 0.824789
vt 0.106590 0.873268
vt 0.140327 0.824829
vt 0.140351 0.824858
vt 0.140341 0.824864
vt 0.140290 0.824839
vt 0.140210 0.824787
vt 0.140134 0.824730
vt 0.140092 0.824692
vt 0.140094 0.824680
vt 0.140130 0.824692
vt 0.140183 0.824719
vt 0.169976 0.781864
vt 0.140235 0.824752
vt 0.170023 0.781896
vt 0.170066 0.781928
vt 0.170091 0.781948
vt 0.170085 0.781946
vt 0.170042 0.781918
vt 0.169902 0.781821
vt 0.169861 0.781791
vt 0.169857 0.781786
vt 0.169885 0.781802
vt 0.169929 0.781831
vt 0.199898 0.738715
vt 0.199938 0.738742
vt 0.199972 0.738764
vt 0.199992 0.738776
vt 0.199987 0.738770
vt 0.169971 0.781870
vt 0.199954 0.738746
vt 0.199849 0.738673
vt 0.199815 0.738651
vt 0.199809 0.738648
vt 0.199827 0.738663
vt 0.199859 0.738687
vt 0.232853 0.691193
vt 0.232882 0.691212
vt 0.232905 0.691227
vt 0.232917 0.691233
vt 0.232913 0.691227
vt 0.199902 0.738710
vt 0.232890 0.691211
vt 0.232824 0.691165
vt 0.232800 0.691150
vt 0.232794 0.691147
vt 0.232804 0.691157
vt 0.232825 0.691173
vt 0.270761 0.636529
vt 0.270778 0.636540
vt 0.270790 0.636548
vt 0.270795 0.636551
vt 0.270791 0.636548
vt 0.232857 0.691187
vt 0.270779 0.636539
vt 0.270745 0.636516
vt 0.270733 0.636508
vt 0.270728 0.636505
vt 0.270732 0.636508
vt 0.270744 0.636517
vt 0.314912 0.572863
vt 0.314917 0.572866
vt 0.314920 0.572870
vt 0.314920 0.572872
vt 0.314917 0.572871
vt 0.270762 0.636528
vt 0.314913 0.572870
vt 0.314904 0.572864
vt 0.314901 0.572860
vt 0.314900 0.572858
vt 0.314902 0.572857
vt 0.314906 0.572859
vt 0.366257 0.498821
vt 0.366252 0.498819
vt 0.366248 0.498818
vt 0.366244 0.498819
vt 0.366244 0.498823
vt 0.314909 0.572867
vt 0.366246 0.498827
vt 0.366256 0.498834
vt 0.366260 0.498834
vt 0.366263 0.498832
vt 0.366263 0.498829
vt 0.366261 0.498825
vt 0.425674 0.413140
vt 0.425661 0.413132
vt 0.425650 0.413129
vt 0.425644 0.413130
vt 0.425645 0.413136
vt 0.366250 0.498831
vt 0.425652 0.413145
vt 0.425676 0.413162
vt 0.425687 0.413166
vt 0.425693 0.413164
vt 0.425693 0.413158
vt 0.425686 0.413149
vt 0.494281 0.314207
vt 0.494261 0.314195
vt 0.494244 0.314189
vt 0.494237 0.314192
vt 0.494240 0.314202
vt 0.425664 0.413155
vt 0.494250 0.314214
vt 0.494285 0.314238
vt 0.494300 0.314243
vt 0.494310 0.314243
vt 0.494310 0.314235
vt 0.494299 0.314222
vt 0.573710 0.199668
vt 0.573686 0.199651
vt 0.573670 0.199640
vt 0.573667 0.199639
vt 0.573675 0.199644
vt 0.494267 0.314228
vt 0.573691 0.199655
vt 0.573729 0.199681
vt 0.573744 0.199692
vt 0.573752 0.199698
vt 0.573750 0.199695
vt 0.573734 0.199684
vt 0.664989 0.068041
vt 0.665289 0.067915
vt 0.665869 0.067335
vt 0.666680 0.066322
vt 0.667656 0.064911
vt 0.573710 0.199667
vt 0.668732 0.063136
vt 0.668271 0.062816
vt 0.666985 0.064446
vt 0.666006 0.065855
vt 0.665342 0.066969
vt 0.665002 0.067716
vt 0.121832 0.395578
vt 0.140048 0.403124
vt 0.153991 0.417066
vt 0.161536 0.435282
vt 0.161536 0.455000
vt 0.153991 0.473217
vt 0.140048 0.487159
vt 0.102114 0.494704
vt 0.083898 0.487159
vt 0.069955 0.473217
vt 0.062410 0.435283
vt 0.069955 0.417066
vt 0.083898 0.403124
vt 0.061305 0.062033
vt 0.330957 0.161536
vt 0.350675 0.161536
vt 0.368891 0.153991
vt 0.382834 0.140048
vt 0.390379 0.121832
vt 0.390379 0.102114
vt 0.382833 0.083898
vt 0.350675 0.062410
vt 0.330957 0.062410
vt 0.312741 0.069955
vt 0.291253 0.102114
vt 0.291253 0.121832
vt 0.298798 0.140048
vt 0.669855 0.061024
s 0
usemtl マテリアル
f 114/1/1 11/2/1 4/3/1
f 2/4/2 9/5/2 3/6/2
f 113/7/3 7/8/3 1/9/3
f 112/10/4 62/11/4 5/12/4
f 61/13/5 4/3/5 11/2/5
f 114/1/6 9/5/6 10/14/6
f 1/9/7 8/15/7 2/4/7
f 113/7/8 5/12/8 6/16/8
f 5/12/9 62/17/9 12/18/9
f 61/19/10 11/2/10 18/20/10
f 9/5/11 17/21/11 10/14/11
f 7/8/12 15/22/12 8/15/12
f 5/12/13 13/23/13 6/16/13
f 10/14/14 18/20/14 11/2/14
f 9/5/15 15/22/15 16/24/15
f 6/16/16 14/25/16 7/8/16
f 17/21/17 23/26/17 24/27/17
f 15/22/18 21/28/18 22/29/18
f 12/18/19 20/30/19 13/23/19
f 17/21/20 25/31/20 18/20/20
f 15/22/21 23/26/21 16/24/21
f 13/23/22 21/28/22 14/25/22
f 12/18/23 62/32/23 19/33/23
f 61/34/24 18/20/24 25/31/24
f 24/27/25 32/35/25 25/31/25
f 23/26/26 29/36/26 30/37/26
f 21/28/27 27/38/27 28/39/27
f 19/33/28 62/40/28 26/41/28
f 61/42/29 25/31/29 32/35/29
f 23/26/30 31/43/30 24/27/30
f 21/28/31 29/36/31 22/29/31
f 19/33/32 27/38/32 20/30/32
f 29/36/33 37/44/33 30/37/33
f 27/38/34 35/45/34 28/39/34
f 26/41/35 62/46/35 33/47/35
f 61/48/36 32/35/36 39/49/36
f 30/37/37 38/50/37 31/43/37
f 28/39/38 36/51/38 29/36/38
f 27/38/39 33/47/39 34/52/39
f 32/35/40 38/50/40 39/49/40
f 61/53/41 39/49/41 46/54/41
f 37/44/42 45/55/42 38/50/42
f 36/51/43 42/56/43 43/57/43
f 34/52/44 40/58/44 41/59/44
f 39/49/45 45/55/45 46/54/45
f 36/51/46 44/60/46 37/44/46
f 34/52/47 42/56/47 35/45/47
f 33/47/48 62/61/48 40/58/48
f 42/56/49 50/62/49 43/57/49
f 40/58/50 48/63/50 41/59/50
f 45/55/51 53/64/51 46/54/51
f 44/60/52 50/62/52 51/65/52
f 41/59/53 49/66/53 42/56/53
f 40/58/54 62/67/54 47/68/54
f 61/69/55 46/54/55 53/64/55
f 45/55/56 51/65/56 52/70/56
f 53/64/57 59/71/57 60/72/57
f 50/62/58 58/73/58 51/65/58
f 48/63/59 56/74/59 49/66/59
f 47/68/60 62/75/60 54/76/60
f 61/77/61 53/64/61 60/72/61
f 51/65/62 59/71/62 52/70/62
f 50/62/63 56/74/63 57/78/63
f 47/68/64 55/79/64 48/63/64
f 55/79/65 65/80/65 56/74/65
f 54/76/66 62/81/66 63/82/66
f 61/83/67 60/72/67 69/84/67
f 59/71/68 67/85/68 68/86/68
f 56/74/69 66/87/69 57/78/69
f 54/76/70 64/88/70 55/79/70
f 59/71/71 69/84/71 60/72/71
f 57/78/72 67/85/72 58/73/72
f 61/89/73 69/84/73 76/90/73
f 68/86/74 74/91/74 75/92/74
f 66/87/75 72/93/75 73/94/75
f 63/82/76 71/95/76 64/88/76
f 69/84/77 75/92/77 76/90/77
f 66/87/78 74/91/78 67/85/78
f 64/88/79 72/93/79 65/80/79
f 63/82/80 62/96/80 70/97/80
f 70/97/81 78/98/81 71/95/81
f 75/92/82 83/99/82 76/90/82
f 73/94/83 81/100/83 74/91/83
f 71/95/84 79/101/84 72/93/84
f 70/97/85 62/102/85 77/103/85
f 61/104/86 76/90/86 83/99/86
f 75/92/87 81/100/87 82/105/87
f 73/94/88 79/101/88 80/106/88
f 82/105/89 90/107/89 83/99/89
f 80/106/90 88/108/90 81/100/90
f 78/98/91 86/109/91 79/101/91
f 77/103/92 62/110/92 84/111/92
f 61/112/93 83/99/93 90/107/93
f 82/105/94 88/108/94 89/113/94
f 80/106/95 86/109/95 87/114/95
f 78/98/96 84/111/96 85/115/96
f 84/116/97 62/117/97 91/118/97
f 61/119/98 90/120/98 97/121/98
f 88/122/99 96/123/99 89/124/99
f 87/125/100 93/126/100 94/127/100
f 84/116/101 92/128/101 85/129/101
f 89/124/102 97/121/102 90/120/102
f 87/125/103 95/130/103 88/122/103
f 85/129/104 93/126/104 86/131/104
f 96/123/105 102/132/105 103/133/105
f 94/127/106 100/134/106 101/135/106
f 91/118/107 99/136/107 92/128/107
f 96/123/108 104/137/108 97/121/108
f 94/127/109 102/132/109 95/130/109
f 92/128/110 100/134/110 93/126/110
f 91/118/111 62/138/111 98/139/111
f 61/140/112 97/121/112 104/137/112
f 103/133/113 111/141/113 104/137/113
f 101/135/114 109/142/114 102/132/114
f 99/136/115 107/143/115 100/134/115
f 98/139/116 62/144/116 105/145/116
f 61/146/117 104/137/117 111/141/117
f 103/133/118 109/142/118 110/147/118
f 101/135/119 107/143/119 108/148/119
f 98/139/120 106/149/120 99/136/120
f 108/148/121 3/6/121 109/142/121
f 106/149/122 1/9/122 107/143/122
f 105/145/123 62/150/123 112/10/123
f 61/151/124 111/141/124 4/3/124
f 110/147/125 3/6/125 114/1/125
f 107/143/126 2/4/126 108/148/126
f 106/149/127 112/10/127 113/7/127
f 110/147/128 4/3/128 111/141/128
f 116/152/129 117/153/129 115/154/129
f 118/155/130 119/156/130 117/153/130
f 120/157/131 121/158/131 119/156/131
f 122/159/132 123/160/132 121/158/132
f 124/161/133 125/162/133 123/160/133
f 126/163/134 127/164/134 125/162/134
f 128/165/135 129/166/135 127/164/135
f 130/167/136 131/168/136 129/166/136
f 132/169/137 133/170/137 131/168/137
f 134/171/138 135/172/138 133/170/138
f 136/173/139 137/174/139 135/172/139
f 138/175/140 139/176/140 137/174/140
f 140/177/141 141/178/141 139/176/141
f 142/179/142 143/180/142 141/178/142
f 136/181/143 128/182/143 120/183/143
f 144/184/144 145/185/144 143/180/144
f 146/186/145 115/187/145 145/185/145
f 129/188/146 137/189/146 145/190/146
s 1
f 159/191/147 158/192/148 147/193/149
f 160/194/150 147/193/149 148/195/151
f 161/196/152 148/195/151 149/197/153
f 162/198/154 149/197/153 150/199/155
f 163/200/156 150/199/155 151/201/157
f 164/202/158 151/201/157 152/203/159
f 153/204/160 164/202/158 152/203/159
f 154/205/161 165/206/162 153/204/160
f 155/207/163 166/208/164 154/205/161
f 156/209/165 167/210/166 155/207/163
f 157/211/167 168/212/168 156/209/165
f 158/192/148 169/213/169 157/211/167
f 171/214/170 170/215/171 159/191/147
f 172/216/172 159/191/147 160/194/150
f 173/217/173 160/194/150 161/196/152
f 174/218/174 161/196/152 162/198/154
f 175/219/175 162/198/154 163/200/156
f 176/220/176 163/200/156 164/202/158
f 165/206/162 176/220/176 164/202/158
f 166/208/164 177/221/177 165/206/162
f 167/210/166 178/222/178 166/208/164
f 168/212/168 179/223/179 167/210/166
f 169/213/169 180/224/180 168/212/168
f 170/215/171 181/225/181 169/213/169
f 171/214/170 194/226/182 182/227/183
f 172/216/172 183/228/184 171/214/170
f 173/217/173 184/229/185 172/216/172
f 174/218/174 185/230/186 173/217/173
f 175/219/175 186/231/187 174/218/174
f 176/220/176 187/232/188 175/219/175
f 189/233/189 176/220/176 177/221/177
f 190/234/190 177/221/177 178/222/178
f 191/235/191 178/222/178 179/223/179
f 192/236/192 179/223/179 180/224/180
f 193/237/193 180/224/180 181/225/181
f 194/226/182 181/225/181 182/227/183
f 183/228/184 206/238/194 194/226/182
f 184/229/185 195/239/195 183/228/184
f 185/230/186 196/240/196 184/229/185
f 186/231/187 197/241/197 185/230/186
f 187/232/188 198/242/198 186/231/187
f 188/243/199 199/244/200 187/232/188
f 201/245/201 188/243/199 189/233/189
f 202/246/202 189/233/189 190/234/190
f 203/247/203 190/234/190 191/235/191
f 204/248/204 191/235/191 192/236/192
f 205/249/205 192/236/192 193/237/193
f 206/238/194 193/237/193 194/226/182
f 195/239/195 218/250/206 206/238/194
f 196/240/196 207/251/207 195/239/195
f 197/241/197 208/252/208 196/240/196
f 198/242/198 209/253/209 197/241/197
f 199/244/200 210/254/210 198/242/198
f 200/255/211 211/256/212 199/244/200
f 213/257/213 200/255/211 201/245/201
f 214/258/214 201/245/201 202/246/202
f 215/259/215 202/246/202 203/247/203
f 216/260/216 203/247/203 204/248/204
f 217/261/217 204/248/204 205/249/205
f 218/250/206 205/249/205 206/238/194
f 207/251/207 230/262/218 218/250/206
f 208/252/208 219/263/219 207/251/207
f 209/253/209 220/264/220 208/252/208
f 210/254/210 221/265/221 209/253/209
f 211/256/212 222/266/222 210/254/210
f 212/267/223 223/268/224 211/256/212
f 225/269/225 212/267/223 213/257/213
f 226/270/226 213/257/213 214/258/214
f 227/271/227 214/258/214 215/259/215
f 228/272/228 215/259/215 216/260/216
f 229/273/229 216/260/216 217/261/217
f 230/262/218 217/261/217 218/250/206
f 219/263/219 242/274/230 230/262/218
f 220/264/220 231/275/231 219/263/219
f 221/265/221 232/276/232 220/264/220
f 222/266/222 233/277/233 221/265/221
f 223/268/224 234/278/234 222/266/222
f 224/279/235 235/280/236 223/268/224
f 237/281/237 224/279/235 225/269/225
f 238/282/238 225/269/225 226/270/226
f 239/283/239 226/270/226 227/271/227
f 240/284/240 227/271/227 228/272/228
f 241/285/241 228/272/228 229/273/229
f 242/274/230 229/273/229 230/262/218
f 231/275/231 254/286/242 242/274/230
f 232/276/232 243/287/243 231/275/231
f 233/277/233 244/288/244 232/276/232
f 234/278/234 245/289/245 233/277/233
f 235/280/236 246/290/246 234/278/234
f 236/291/247 247/292/248 235/280/236
f 249/293/249 236/291/247 237/281/237
f 250/294/250 237/281/237 238/282/238
f 251/295/251 238/282/238 239/283/239
f 252/296/252 239/283/239 240/284/240
f 253/297/253 240/284/240 241/285/241
f 254/286/242 241/285/241 242/274/230
f 243/287/243 266/298/254 254/286/242
f 244/288/244 255/299/255 243/287/243
f 245/289/245 256/300/256 244/288/244
f 246/290/246 257/301/257 245/289/245
f 247/292/248 258/302/258 246/290/246
f 248/303/259 259/304/260 247/292/248
f 261/305/261 248/303/259 249/293/249
f 262/306/262 249/293/249 250/294/250
f 263/307/263 250/294/250 251/295/251
f 264/308/264 251/295/251 252/296/252
f 265/309/265 252/296/252 253/297/253
f 266/298/254 253/297/253 254/286/242
f 255/299/255 278/310/266 266/298/254
f 256/300/256 267/311/267 255/299/255
f 257/301/257 268/312/268 256/300/256
f 258/302/258 269/313/269 257/301/257
f 259/304/260 270/314/270 258/302/258
f 260/315/271 271/316/272 259/304/260
f 273/317/273 260/315/271 261/305/261
f 274/318/274 261/305/261 262/306/262
f 275/319/275 262/306/262 263/307/263
f 276/320/276 263/307/263 264/308/264
f 277/321/277 264/308/264 265/309/265
f 278/310/266 265/309/265 266/298/254
f 267/311/267 290/322/278 278/310/266
f 268/312/268 279/323/279 267/311/267
f 269/313/269 280/324/280 268/312/268
f 270/314/270 281/325/281 269/313/269
f 271/316/272 282/326/282 270/314/270
f 272/327/283 283/328/284 271/316/272
f 285/329/285 272/327/283 273/317/273
f 286/330/286 273/317/273 274/318/274
f 287/331/287 274/318/274 275/319/275
f 288/332/288 275/319/275 276/320/276
f 289/333/289 276/320/276 277/321/277
f 290/322/278 277/321/277 278/310/266
f 279/323/279 302/334/290 290/322/278
f 280/324/280 291/335/291 279/323/279
f 281/325/281 292/336/292 280/324/280
f 282/326/282 293/337/293 281/325/281
f 283/328/284 294/338/294 282/326/282
f 284/339/295 295/340/296 283/328/284
f 297/341/297 284/339/295 285/329/285
f 298/342/298 285/329/285 286/330/286
f 299/343/299 286/330/286 287/331/287
f 300/344/300 287/331/287 288/332/288
f 301/345/301 288/332/288 289/333/289
f 302/334/290 289/333/289 290/322/278
s 0
f 114/1/1 10/14/1 11/2/1
f 2/4/2 8/15/2 9/5/2
f 113/7/3 6/16/3 7/8/3
f 114/1/6 3/6/6 9/5/6
f 1/9/7 7/8/7 8/15/7
f 113/7/8 112/10/8 5/12/8
f 9/5/11 16/24/11 17/21/11
f 7/8/12 14/25/12 15/22/12
f 5/12/13 12/18/13 13/23/13
f 10/14/14 17/21/14 18/20/14
f 9/5/15 8/15/15 15/22/15
f 6/16/16 13/23/16 14/25/16
f 17/21/17 16/24/17 23/26/17
f 15/22/18 14/25/18 21/28/18
f 12/18/19 19/33/19 20/30/19
f 17/21/20 24/27/20 25/31/20
f 15/22/21 22/29/21 23/26/21
f 13/23/22 20/30/22 21/28/22
f 24/27/25 31/43/25 32/35/25
f 23/26/26 22/29/26 29/36/26
f 21/28/27 20/30/27 27/38/27
f 23/26/30 30/37/30 31/43/30
f 21/28/31 28/39/31 29/36/31
f 19/33/32 26/41/32 27/38/32
f 29/36/33 36/51/33 37/44/33
f 27/38/34 34/52/34 35/45/34
f 30/37/37 37/44/37 38/50/37
f 28/39/38 35/45/38 36/51/38
f 27/38/39 26/41/39 33/47/39
f 32/35/40 31/43/40 38/50/40
f 37/44/42 44/60/42 45/55/42
f 36/51/43 35/45/43 42/56/43
f 34/52/44 33/47/44 40/58/44
f 39/49/45 38/50/45 45/55/45
f 36/51/46 43/57/46 44/60/46
f 34/52/47 41/59/47 42/56/47
f 42/56/49 49/66/49 50/62/49
f 40/58/50 47/68/50 48/63/50
f 45/55/51 52/70/51 53/64/51
f 44/60/52 43/57/52 50/62/52
f 41/59/53 48/63/53 49/66/53
f 45/55/56 44/60/56 51/65/56
f 53/64/57 52/70/57 59/71/57
f 50/62/58 57/78/58 58/73/58
f 48/63/59 55/79/59 56/74/59
f 51/65/62 58/73/62 59/71/62
f 50/62/63 49/66/63 56/74/63
f 47/68/64 54/76/64 55/79/64
f 55/79/65 64/88/65 65/80/65
f 59/71/68 58/73/68 67/85/68
f 56/74/69 65/80/69 66/87/69
f 54/76/70 63/82/70 64/88/70
f 59/71/71 68/86/71 69/84/71
f 57/78/72 66/87/72 67/85/72
f 68/86/74 67/85/74 74/91/74
f 66/87/75 65/80/75 72/93/75
f 63/82/76 70/97/76 71/95/76
f 69/84/77 68/86/77 75/92/77
f 66/87/78 73/94/78 74/91/78
f 64/88/79 71/95/79 72/93/79
f 70/97/81 77/103/81 78/98/81
f 75/92/82 82/105/82 83/99/82
f 73/94/83 80/106/83 81/100/83
f 71/95/84 78/98/84 79/101/84
f 75/92/87 74/91/87 81/100/87
f 73/94/88 72/93/88 79/101/88
f 82/105/89 89/113/89 90/107/89
f 80/106/90 87/114/90 88/108/90
f 78/98/91 85/115/91 86/109/91
f 82/105/94 81/100/94 88/108/94
f 80/106/95 79/101/95 86/109/95
f 78/98/96 77/103/96 84/111/96
f 88/122/99 95/130/99 96/123/99
f 87/125/100 86/131/100 93/126/100
f 84/116/101 91/118/101 92/128/101
f 89/124/102 96/123/102 97/121/102
f 87/125/103 94/127/103 95/130/103
f 85/129/104 92/128/104 93/126/104
f 96/123/105 95/130/105 102/132/105
f 94/127/106 93/126/106 100/134/106
f 91/118/107 98/139/107 99/136/107
f 96/123/108 103/133/108 104/137/108
f 94/127/109 101/135/109 102/132/109
f 92/128/110 99/136/110 100/134/110
f 103/133/113 110/147/113 111/141/113
f 101/135/114 108/148/114 109/142/114
f 99/136/115 106/149/115 107/143/115
f 103/133/118 102/132/118 109/142/118
f 101/135/119 100/134/119 107/143/119
f 98/139/120 105/145/120 106/149/120
f 108/148/121 2/4/121 3/6/121
f 106/149/122 113/7/122 1/9/122
f 110/147/125 109/142/125 3/6/125
f 107/143/126 1/9/126 2/4/126
f 106/149/127 105/145/127 112/10/127
f 110/147/128 114/1/128 4/3/128
f 116/152/129 118/155/129 117/153/129
f 118/155/130 120/157/130 119/156/130
f 120/157/131 122/159/131 121/158/131
f 122/159/132 124/161/132 123/160/132
f 124/161/133 126/163/133 125/162/133
f 126/163/134 128/165/134 127/164/134
f 128/165/135 130/167/135 129/166/135
f 130/167/136 132/169/136 131/168/136
f 132/169/137 134/171/137 133/170/137
f 134/171/138 136/173/138 135/172/138
f 136/173/139 138/175/139 137/174/139
f 138/175/140 140/177/140 139/176/140
f 140/177/141 142/179/141 141/178/141
f 142/179/142 144/184/142 143/180/142
f 120/183/143 118/346/143 116/347/143
f 116/347/143 146/348/143 144/349/143
f 144/349/143 142/350/143 140/351/143
f 140/351/143 138/352/143 136/181/143
f 136/181/143 134/353/143 132/354/143
f 132/354/143 130/355/143 128/182/143
f 128/182/143 126/356/143 124/357/143
f 124/357/143 122/358/143 120/183/143
f 120/183/143 116/347/143 144/349/143
f 144/349/143 140/351/143 136/181/143
f 136/181/143 132/354/143 128/182/143
f 128/182/143 124/357/143 120/183/143
f 120/183/143 144/349/143 136/181/143
f 144/184/144 146/186/144 145/185/144
f 146/186/145 116/359/145 115/187/145
f 145/190/146 115/360/146 117/361/146
f 117/361/146 119/362/146 121/363/146
f 121/363/146 123/364/146 125/365/146
f 125/365/146 127/366/146 129/188/146
f 129/188/146 131/367/146 133/368/146
f 133/368/146 135/369/146 137/189/146
f 137/189/146 139/370/146 141/371/146
f 141/371/146 143/372/146 145/190/146
f 145/190/146 117/361/146 121/363/146
f 121/363/146 125/365/146 129/188/146
f 129/188/146 133/368/146 137/189/146
f 137/189/146 141/371/146 145/190/146
f 145/190/146 121/363/146 129/188/146
s 1
f 159/191/147 170/215/171 158/192/148
f 160/194/150 159/191/147 147/193/149
f 161/196/152 160/194/150 148/195/151
f 162/198/154 161/196/152 149/197/153
f 163/200/156 162/198/154 150/199/155
f 164/202/158 163/200/156 151/201/157
f 153/204/160 165/206/162 164/202/158
f 154/205/161 166/208/164 165/206/162
f 155/207/163 167/210/166 166/208/164
f 156/209/165 168/212/168 167/210/166
f 157/211/167 169/213/169 168/212/168
f 158/192/148 170/215/171 169/213/169
f 171/214/170 182/227/183 170/215/171
f 172/216/172 171/214/170 159/191/147
f 173/217/173 172/216/172 160/194/150
f 174/218/174 173/217/173 161/196/152
f 175/219/175 174/218/174 162/198/154
f 176/220/176 175/219/175 163/200/156
f 165/206/162 177/221/177 176/220/176
f 166/208/164 178/222/178 177/221/177
f 167/210/166 179/223/179 178/222/178
f 168/212/168 180/224/180 179/223/179
f 169/213/169 181/225/181 180/224/180
f 170/215/171 182/227/183 181/225/181
f 171/214/170 183/228/184 194/226/182
f 172/216/172 184/229/185 183/228/184
f 173/217/173 185/230/186 184/229/185
f 174/218/174 186/231/187 185/230/186
f 175/219/175 187/232/188 186/231/187
f 176/220/176 188/243/199 187/232/188
f 189/233/189 188/243/199 176/220/176
f 190/234/190 189/233/189 177/221/177
f 191/235/191 190/234/190 178/222/178
f 192/236/192 191/235/191 179/223/179
f 193/237/193 192/236/192 180/224/180
f 194/226/182 193/237/193 181/225/181
f 183/228/184 195/239/195 206/238/194
f 184/229/185 196/240/196 195/239/195
f 185/230/186 197/241/197 196/240/196
f 186/231/187 198/242/198 197/241/197
f 187/232/188 199/244/200 198/242/198
f 188/243/199 200/255/211 199/244/200
f 201/245/201 200/255/211 188/243/199
f 202/246/202 201/245/201 189/233/189
f 203/247/203 202/246/202 190/234/190
f 204/248/204 203/247/203 191/235/191
f 205/249/205 204/248/204 192/236/192
f 206/238/194 205/249/205 193/237/193
f 195/239/195 207/251/207 218/250/206
f 196/240/196 208/252/208 207/251/207
f 197/241/197 209/253/209 208/252/208
f 198/242/198 210/254/210 209/253/209
f 199/244/200 211/256/212 210/254/210
f 200/255/211 212/267/223 211/256/212
f 213/257/213 212/267/223 200/255/211
f 214/258/214 213/257/213 201/245/201
f 215/259/215 214/258/214 202/246/202
f 216/260/216 215/259/215 203/247/203
f 217/261/217 216/260/216 204/248/204
f 218/250/206 217/261/217 205/249/205
f 207/251/207 219/263/219 230/262/218
f 208/252/208 220/264/220 219/263/219
f 209/253/209 221/265/221 220/264/220
f 210/254/210 222/266/222 221/265/221
f 211/256/212 223/268/224 222/266/222
f 212/267/223 224/279/235 223/268/224
f 225/269/225 224/279/235 212/267/223
f 226/270/226 225/269/225 213/257/213
f 227/271/227 226/270/226 214/258/214
f 228/272/228 227/271/227 215/259/215
f 229/273/229 228/272/228 216/260/216
f 230/262/218 229/273/229 217/261/217
f 219/263/219 231/275/231 242/274/230
f 220/264/220 232/276/232 231/275/231
f 221/265/221 233/277/233 232/276/232
f 222/266/222 234/278/234 233/277/233
f 223/268/224 235/280/236 234/278/234
f 224/279/235 236/291/247 235/280/236
f 237/281/237 236/291/247 224/279/235
f 238/282/238 237/281/237 225/269/225
f 239/283/239 238/282/238 226/270/226
f 240/284/240 239/283/239 227/271/227
f 241/285/241 240/284/240 228/272/228
f 242/274/230 241/285/241 229/273/229
f 231/275/231 243/287/243 254/286/242
f 232/276/232 244/288/244 243/287/243
f 233/277/233 245/289/245 244/288/244
f 234/278/234 246/290/246 245/289/245
f 235/280/236 247/292/248 246/290/246
f 236/291/247 248/303/259 247/292/248
f 249/293/249 248/303/259 236/291/247
f 250/294/250 249/293/249 237/281/237
f 251/295/251 250/294/250 238/282/238
f 252/296/252 251/295/251 239/283/239
f 253/297/253 252/296/252 240/284/240
f 254/286/242 253/297/253 241/285/241
f 243/287/243 255/299/255 266/298/254
f 244/288/244 256/300/256 255/299/255
f 245/289/245 257/301/257 256/300/256
f 246/290/246 258/302/258 257/301/257
f 247/292/248 259/304/260 258/302/258
f 248/303/259 260/315/271 259/304/260
f 261/305/261 260/315/271 248/303/259
f 262/306/262 261/305/261 249/293/249
f 263/307/263 262/306/262 250/294/250
f 264/308/264 263/307/263 251/295/251
f 265/309/265 264/308/264 252/296/252
f 266/298/254 265/309/265 253/297/253
f 255/299/255 267/311/267 278/310/266
f 256/300/256 268/312/268 267/311/267
f 257/301/257 269/313/269 268/312/268
f 258/302/258 270/314/270 269/313/269
f 259/304/260 271/316/272 270/314/270
f 260/315/271 272/327/283 271/316/272
f 273/317/273 272/327/283 260/315/271
f 274/318/274 273/317/273 261/305/261
f 275/319/275 274/318/274 262/306/262
f 276/320/276 275/319/275 263/307/263
f 277/321/277 276/320/276 264/308/264
f 278/310/266 277/321/277 265/309/265
f 267/311/267 279/323/279 290/322/278
f 268/312/268 280/324/280 279/323/279
f 269/313/269 281/325/281 280/324/280
f 270/314/270 282/326/282 281/325/281
f 271/316/272 283/328/284 282/326/282
f 272/327/283 284/339/295 283/328/284
f 285/329/285 284/339/295 272/327/283
f 286/330/286 285/329/285 273/317/273
f 287/331/287 286/330/286 274/318/274
f 288/332/288 287/331/287 275/319/275
f 289/333/289 288/332/288 276/320/276
f 290/322/278 289/333/289 277/321/277
f 279/323/279 291/335/291 302/334/290
f 280/324/280 292/336/292 291/335/291
f 281/325/281 293/337/293 292/336/292
f 282/326/282 294/338/294 293/337/293
f 283/328/284 295/340/296 294/338/294
f 284/339/295 296/373/302 295/340/296
f 297/341/297 296/373/302 284/339/295
f 298/342/298 297/341/297 285/329/285
f 299/343/299 298/342/298 286/330/286
f 300/344/300 299/343/299 287/331/287
f 301/345/301 300/344/300 288/332/288
f 302/334/290 301/345/301 289/333/289
