# Blender 4.4.0
# www.blender.org
mtllib goalBlock.mtl
o 立方体.002
v -0.150000 0.000000 -0.080000
v -0.150000 1.000000 -0.080000
v -0.150000 0.000000 0.080000
v -0.150000 1.000000 0.080000
v -1.150000 0.500000 -0.080000
v -1.150000 0.500000 -0.080000
v -1.150000 0.500000 0.080000
v -1.150000 0.500000 0.080000
v 0.150000 -1.000000 -0.150000
v 0.150000 1.000000 -0.150000
v 0.150000 -1.000000 0.150000
v 0.150000 1.000000 0.150000
v -0.150000 -1.000000 -0.150000
v -0.150000 1.000000 -0.150000
v -0.150000 -1.000000 0.150000
v -0.150000 1.000000 0.150000
vn 1.0000 -0.0000 -0.0000
vn -0.0000 -0.0000 1.0000
vn -0.0000 1.0000 -0.0000
vn -0.4472 -0.8944 -0.0000
vn -0.4472 0.8944 -0.0000
vn -1.0000 -0.0000 -0.0000
vn -0.0000 -0.0000 -1.0000
vn -0.0000 -1.0000 -0.0000
vt 0.855030 0.344724
vt 0.770009 0.429744
vt 0.770009 0.344724
vt 0.855030 0.429744
vt 0.770009 0.514765
vt 0.855030 0.514765
vt 0.770009 0.599785
vt 0.855030 0.599785
vt 0.770009 0.684806
vt 0.684989 0.599785
vt 0.684989 0.514765
vt 0.940050 0.514765
vt 0.218823 0.345101
vt 0.146295 0.417629
vt 0.146295 0.345101
vt 0.218823 0.417629
vt 0.146295 0.490157
vt 0.218823 0.490157
vt 0.146295 0.562685
vt 0.218823 0.562685
vt 0.146295 0.635213
vt 0.073767 0.562685
vt 0.073767 0.490157
vt 0.291351 0.490157
vt 0.855030 0.684806
vt 0.940050 0.599785
vt 0.218823 0.635213
vt 0.291351 0.562685
s 0
usemtl マテリアル
f 2/1/1 3/2/1 1/3/1
f 4/4/2 7/5/2 3/2/2
f 8/6/3 5/7/3 7/5/3
f 6/8/3 1/9/3 5/7/3
f 7/5/4 1/10/4 3/11/4
f 4/12/5 6/8/5 8/6/5
f 10/13/1 11/14/1 9/15/1
f 12/16/2 15/17/2 11/14/2
f 16/18/6 13/19/6 15/17/6
f 14/20/7 9/21/7 13/19/7
f 15/17/8 9/22/8 11/23/8
f 12/24/3 14/20/3 16/18/3
f 2/1/1 4/4/1 3/2/1
f 4/4/3 8/6/3 7/5/3
f 8/6/3 6/8/3 5/7/3
f 6/8/7 2/25/7 1/9/7
f 7/5/4 5/7/4 1/10/4
f 4/12/5 2/26/5 6/8/5
f 10/13/1 12/16/1 11/14/1
f 12/16/2 16/18/2 15/17/2
f 16/18/6 14/20/6 13/19/6
f 14/20/7 10/27/7 9/21/7
f 15/17/8 13/19/8 9/22/8
f 12/24/3 10/28/3 14/20/3
