# Blender 4.1.1
# www.blender.org
mtllib areaBlock.mtl
o Cube
v 1.000000 1.000000 -1.000000
v 1.000000 -1.000000 -1.000000
v 1.000000 1.000000 1.000000
v 1.000000 -1.000000 1.000000
v -1.000000 1.000000 -1.000000
v -1.000000 -1.000000 -1.000000
v -1.000000 1.000000 1.000000
v -1.000000 -1.000000 1.000000
vn -0.0000 1.0000 -0.0000
vn -0.0000 -0.0000 1.0000
vn -1.0000 -0.0000 -0.0000
vn -0.0000 -1.0000 -0.0000
vn 1.0000 -0.0000 -0.0000
vn -0.0000 -0.0000 -1.0000
vt 0.986659 0.008285
vt 0.010007 0.984937
vt 0.010007 0.008285
vt 0.986659 0.008285
vt 0.010007 0.008285
vt 0.014897 0.008285
vt 0.991549 0.984937
vt 0.014897 0.984937
vt 0.986659 0.975159
vt 0.010007 -0.001493
vt 0.986659 -0.001493
vt 0.981770 0.013174
vt 0.005118 0.989827
vt 0.005118 0.013174
vt 0.010007 0.008285
vt 0.986659 0.984937
vt 0.010007 0.984937
vt 0.986659 0.984937
vt 0.991548 0.008285
vt 0.010007 0.975159
vt 0.981770 0.989826
vt 0.986659 0.008285
s 0
usemtl Material
f 5/1/1 3/2/1 1/3/1
f 3/4/2 8/2/2 4/5/2
f 7/6/3 6/7/3 8/8/3
f 2/9/4 8/10/4 6/11/4
f 1/12/5 4/13/5 2/14/5
f 5/15/6 2/16/6 6/17/6
f 5/1/1 7/18/1 3/2/1
f 3/4/2 7/18/2 8/2/2
f 7/6/3 5/19/3 6/7/3
f 2/9/4 4/20/4 8/10/4
f 1/12/5 3/21/5 4/13/5
f 5/15/6 1/22/6 2/16/6
